<svg xml:space="preserve" style="enable-background:new 0 0 350 55.4;" viewBox="0 0 350 55.4" y="0px" x="0px" xmlns:xlink="http://www.w3.org/1999/xlink" xmlns="http://www.w3.org/2000/svg" id="Capa_1" version="1.1">
<style type="text/css">
	.st0{fill:#FFFFFF;}
</style>
<path d="M95.7,32.8l8.2-27.5l8.4,27.5L95.7,32.8L95.7,32.8z M196.9,2c7.1,0,11.2,6.1,11.2,14.5S204.2,30,196.8,30h-5.6
	V2H196.9z M283.1,2c7.8,0,11.4,4.6,11.4,13.1c0,8.3-3.8,12.4-11.5,12.4h-5.7V2H283.1L283.1,2z M177.7,54.4h18.6V54
	c-3.1,0-5.1-1.8-5.1-4.6V31.1h6.5c12.7,0,19.4-4.6,19.4-14.7c0-9.7-6.7-15.5-19.4-15.5h-20v0.4c2.9,0,4.8,1.1,4.8,5.7v41.3
	c0,4.6-1.9,5.7-4.8,5.7V54.4L177.7,54.4z M171.8,54.4l1.3-9h-0.5c-2,5.9-2.7,7.8-15.4,7.8h-7.8V6.9c0-4.6,1.9-5.7,4.8-5.7V0.8h-18.3
	v0.4c2.9,0,4.8,1.1,4.8,5.7v41.3c0,4.6-1.9,5.7-4.8,5.7v0.4H171.8L171.8,54.4z M117.2,48.5c0.3,0.9,1.6,5.3-3.6,5.4v0.4h18.3V54
	c-3.6,0-4.2-2-5.5-5.9L110.9,0.8h-6.9L89.3,49.4c-0.7,2.4-3,4.4-5.7,4.6v0.4h10.5V54c-2.9-0.2-4.4-1.3-3.4-4.6l4.6-15.5h17.3
	L117.2,48.5z M263.8,54.4h18.4V54c-2.9,0-4.9-1.8-4.9-4.6V28.6h3.3c3.9,0,6.4,1.9,8.4,6.1l6,13c1.2,2.7,2.7,5.2,4.1,6.7h11.6V54
	c-2.7-0.3-4.8-2.9-6.9-7.5L299,35.6c-2.2-4.7-6-6.1-10.6-7.3c10.6-1.7,14.9-5.7,14.9-13.5c0-9.8-6.7-14-19.3-14h-20.2v0.4
	c2.9,0,4.8,1.1,4.8,5.7v41.3c0,4.6-1.8,5.7-4.8,5.7L263.8,54.4L263.8,54.4z M226.2,48.3c0,4.6-1.9,5.7-4.8,5.7v0.4h35.9l1.1-8.2
	h-0.5c-1.7,5.7-2.6,7-15.2,7h-7.8V26c9.7,0.1,11.4-0.1,12,5h0.4V19.8H247c-0.6,5.1-2.3,4.9-12,5V2h5.7c11.6,0,12.4,0.6,13,7.5h0.4
	l1.1-8.6h-33.7v0.4c2.9,0,4.8,1.1,4.8,5.7L226.2,48.3L226.2,48.3z M339.6,25.5L329,20.5c-5.6-2.6-7.6-5.6-7.6-9.5
	c0-3.8,2.6-9.9,9.7-9.9c5.9,0,12,3.9,13.4,11.8h0.4l1-8c-2.7-2.1-8.1-4.9-14.8-4.9c-9.2,0-16.9,5.8-16.9,14.2
	c0,5.9,3.6,10.4,10.3,13.7l10.5,5.1c5.1,2.4,7.8,5.9,7.8,10.4s-3,10.7-11.1,10.7c-7.3,0-13.4-3.8-15.8-11.7h-0.4l-0.8,8.4
	c3.8,1.9,9.4,4.5,17.1,4.5c13.9,0,18.4-9.4,18.3-15.7C349.8,33.5,346.3,28.6,339.6,25.5z M52,28c0-14.4,4.2-26.9,15-26.9
	c7.5,0,11.8,5.4,12.5,11.5H80l1-7.4C78.8,3.1,74.3,0,67.1,0c-15.9,0-24.6,12.7-24.6,28c-0.1,14.7,9,27.2,24.2,27.2
	c6.8,0,11.6-2.9,14.1-5.5l-0.9-7.3h-0.4C79,48.4,74.5,54,66.8,54C56.9,54,52,42.9,52,28z M25.5,25.5l-10.6-4.9C9.3,18,7.2,15,7.2,11
	c0-3.8,2.6-9.9,9.7-9.9c5.9,0,12,3.9,13.4,11.8h0.4l1-8C29,2.9,23.7,0,16.9,0C7.7,0,0,5.8,0,14.2C0,20.1,3.6,24.7,10.3,28L20.8,33
	c5.1,2.4,7.8,5.9,7.8,10.4s-3,10.7-11.1,10.7c-7.3,0-13.4-3.8-15.8-11.7H1.3l-0.8,8.4c3.8,1.9,9.4,4.5,17.1,4.5
	c13.9,0,18.4-9.4,18.3-15.7C35.7,33.5,32.2,28.6,25.5,25.5z" class="st0"></path>
</svg>
