<?xml version="1.0" encoding="utf-8"?>
<!-- Generator: Adobe Illustrator 25.2.1, SVG Export Plug-In . SVG Version: 6.00 Build 0)  -->
<svg version="1.1" id="Capa_1" xmlns="http://www.w3.org/2000/svg" xmlns:xlink="http://www.w3.org/1999/xlink" x="0px" y="0px"
	 viewBox="0 0 1073.36 265.53" style="enable-background:new 0 0 1073.36 265.53;" xml:space="preserve">
<g>
	<path d="M694.8,61.28c-19.22,0-36.78,7.09-49.44,19.96c-12.72,13.16-19.72,31.54-19.72,51.74c0,21.75,7.76,40.88,21.85,53.87
		c12.25,11.39,28.6,17.41,47.31,17.41c19.15,0,35.81-6.31,48.18-18.27c13.55-13.12,21.01-31.93,21.01-53.01
		c0-19.15-6.09-36.31-17.61-49.62C733.66,69.12,715.36,61.28,694.8,61.28z M694.8,188.65c-31.62,0-51.26-21.33-51.26-55.67
		c0-34.34,19.64-55.68,51.26-55.68c31.64,0,51.27,21.34,51.27,55.68C746.08,167.32,726.44,188.65,694.8,188.65z"/>
	<path d="M262.32,130.56c-3.23,5.12-4.76,8.21-6.07,11.16c-1.46-3.13-3.36-6.39-6.49-11.17l-44.34-67.71h-16.34v139.81h16.65v-100.7
		c0-4.22,0-6.69-0.49-11.55c1.97,4.58,3.87,7.73,6.01,10.85l39.5,60.21h10.81l37.4-60.23l0.73-1.22c1.58-2.64,3.33-5.57,5.18-9.88
		c-0.39,5.04-0.39,7.52-0.39,11.82v100.7h16.65V62.83h-16.48L262.32,130.56z"/>
	<path d="M406.41,62.82H366v139.82h16.38v-52.79c6.97-0.84,72.82-9.94,72.82-54.99C455.2,66.62,430.54,62.82,406.41,62.82z
		 M382.38,77.94h23.2c18.52,0,32.69,1.25,32.69,16.93c0,32.43-49.37,38.39-55.88,39.04V77.94z"/>
	<path d="M95.81,62.4L36.68,202.64h16.77l21.58-52.66l57.44,17.23l14.55,35.43h17.61L105.29,62.4H95.81z M125.65,150.27
		l-45.26-13.62l19.85-47.71L125.65,150.27z"/>
	<path d="M977.34,62.4h-9.48l-59.13,140.24h16.75l21.59-52.66l57.45,17.23l14.56,35.43h17.61L977.34,62.4z M997.7,150.27
		l-45.25-13.62l19.83-47.71L997.7,150.27z"/>
	<polygon points="577.42,117.82 502.84,117.82 502.84,62.82 486.19,62.82 486.19,202.64 502.84,202.64 502.84,133.21 577.42,133.21 
		577.42,202.64 594.06,202.64 594.06,62.82 577.42,62.82 	"/>
	<path d="M848.51,140.02c18.2-7.86,36.23-21.57,36.23-45.15c0-28.24-24.66-32.05-48.78-32.05h-40.41v139.82h16.36v-52.79
		c2.11-0.26,9.66-1.28,19.11-3.82c7.64,7.16,25.31,27.87,43.25,56.31l0.2,0.3h19.83l-0.63-1.01
		C877.37,175.91,857.75,151.38,848.51,140.02z M811.92,77.94h23.21c18.53,0,32.69,1.25,32.69,16.93c0,32.43-49.37,38.39-55.9,39.04
		V77.94z"/>
</g>
</svg>
